<svg width="12" height="12" viewBox="0 0 12 12" fill="none" xmlns="http://www.w3.org/2000/svg">
<path d="M4.00008 0.166626C1.88299 0.166626 0.166748 1.88287 0.166748 3.99996V8.73787C0.166748 9.01402 0.390606 9.23787 0.666748 9.23787C0.94289 9.23787 1.16675 9.01402 1.16675 8.73787V3.99996C1.16675 2.43515 2.43527 1.16663 4.00008 1.16663H8.67532C8.95146 1.16663 9.17532 0.942768 9.17532 0.666626C9.17532 0.390484 8.95146 0.166626 8.67532 0.166626H4.00008Z" fill="#64748B"/>
<path fill-rule="evenodd" clip-rule="evenodd" d="M10.2684 2.5288C8.10782 2.28732 5.89237 2.28732 3.73173 2.5288C3.11622 2.59759 2.62159 3.08199 2.54904 3.70228C2.29279 5.89326 2.29279 8.10665 2.54904 10.2976C2.62159 10.9179 3.11622 11.4023 3.73173 11.4711C5.89237 11.7126 8.10781 11.7126 10.2684 11.4711C10.884 11.4023 11.3786 10.9179 11.4511 10.2976C11.7074 8.10665 11.7074 5.89326 11.4511 3.70228C11.3786 3.08199 10.884 2.59759 10.2684 2.5288ZM3.84281 3.52261C5.92962 3.28938 8.07056 3.28938 10.1574 3.52261C10.3156 3.5403 10.44 3.66543 10.4579 3.81844C10.7051 5.93225 10.7051 8.06767 10.4579 10.1815C10.44 10.3345 10.3156 10.4596 10.1574 10.4773C8.07056 10.7105 5.92962 10.7105 3.84281 10.4773C3.68457 10.4596 3.56017 10.3345 3.54227 10.1815C3.29504 8.06767 3.29504 5.93225 3.54227 3.81844C3.56017 3.66543 3.68457 3.5403 3.84281 3.52261Z" fill="#64748B"/>
</svg>
