<svg width="35" height="34" viewBox="0 0 35 34" fill="none" xmlns="http://www.w3.org/2000/svg">
<rect x="1" y="0.5" width="33" height="33" rx="16.5" fill="white"/>
<rect x="1" y="0.5" width="33" height="33" rx="16.5" stroke="#8E198F"/>
<path d="M20 17.6667C20 17.3905 19.7761 17.1667 19.5 17.1667H15.5C15.2238 17.1667 15 17.3905 15 17.6667C15 17.9428 15.2238 18.1667 15.5 18.1667H19.5C19.7761 18.1667 20 17.9428 20 17.6667Z" fill="#8E198F"/>
<path d="M20 20.3333C20 20.0572 19.7761 19.8333 19.5 19.8333H15.5C15.2238 19.8333 15 20.0572 15 20.3333C15 20.6095 15.2238 20.8333 15.5 20.8333H19.5C19.7761 20.8333 20 20.6095 20 20.3333Z" fill="#8E198F"/>
<path fill-rule="evenodd" clip-rule="evenodd" d="M14.1666 10.5C13.1541 10.5 12.3333 11.3208 12.3333 12.3333V21.6667C12.3333 22.6792 13.1541 23.5 14.1666 23.5H20.8333C21.8458 23.5 22.6666 22.6792 22.6666 21.6667V14.3118C22.6666 14.0579 22.5839 13.811 22.4308 13.6085L20.4323 10.9634C20.2118 10.6715 19.8672 10.5 19.5015 10.5H14.1666ZM13.3333 12.3333C13.3333 11.8731 13.7064 11.5 14.1666 11.5H19V14.4314C19 14.7075 19.2238 14.9314 19.5 14.9314H21.6666V21.6667C21.6666 22.1269 21.2936 22.5 20.8333 22.5H14.1666C13.7064 22.5 13.3333 22.1269 13.3333 21.6667V12.3333Z" fill="#8E198F"/>
</svg>
