<svg width="35" height="34" viewBox="0 0 35 34" fill="none" xmlns="http://www.w3.org/2000/svg">
<rect x="1" y="0.5" width="33" height="33" rx="16.5" fill="white"/>
<rect x="1" y="0.5" width="33" height="33" rx="16.5" stroke="#8E198F"/>
<path fill-rule="evenodd" clip-rule="evenodd" d="M17.5 12.1667C14.8306 12.1667 12.6666 14.3306 12.6666 17C12.6666 19.6694 14.8306 21.8333 17.5 21.8333C20.1693 21.8333 22.3333 19.6694 22.3333 17C22.3333 14.3306 20.1693 12.1667 17.5 12.1667ZM11.6666 17C11.6666 13.7783 14.2783 11.1667 17.5 11.1667C20.7216 11.1667 23.3333 13.7783 23.3333 17C23.3333 20.2217 20.7216 22.8333 17.5 22.8333C14.2783 22.8333 11.6666 20.2217 11.6666 17Z" fill="#8E198F"/>
<path fill-rule="evenodd" clip-rule="evenodd" d="M16.7332 15.2058C16.1108 15.7178 15.695 16.438 15.5627 17.233L15.2708 18.9883C15.1192 19.8997 16.179 20.5116 16.8926 19.9246L18.2666 18.7941C18.889 18.2821 19.3048 17.5619 19.437 16.7669L19.729 15.0117C19.8806 14.1002 18.8208 13.4883 18.1072 14.0754L16.7332 15.2058ZM17.5 16C16.9477 16 16.5 16.4477 16.5 17C16.5 17.5523 16.9477 18 17.5 18C18.0522 18 18.5 17.5523 18.5 17C18.5 16.4477 18.0522 16 17.5 16Z" fill="#8E198F"/>
</svg>
